
<svg width="151px" height="28px" viewBox="566 159 151 28" version="1.1" xmlns="http://www.w3.org/2000/svg" xmlns:xlink="http://www.w3.org/1999/xlink">
    <!-- Generator: Sketch 42 (36781) - http://www.bohemiancoding.com/sketch -->
    <desc>Created with Sketch.</desc>
    <defs></defs>
    <g id="Convoo-Logo" stroke="none" fill="none" transform="translate(566.000000, 160.000000)" stroke-width="1" fill-rule="evenodd">
        <g id="Group">
            <g id="V3-Logo" fill="#6092E0">
                <path d="M13.419975,-5.32907052e-15 L13.5663734,-5.32907052e-15 C13.6225416,0.00573303281 13.6785634,0.0137216851 13.734878,0.0167761698 C14.0631031,0.0344451889 14.3916211,0.0469920722 14.7195047,0.0687494017 C15.3457969,0.110290394 15.9624269,0.213437992 16.5732497,0.350748827 C18.8506717,0.862586478 20.8533527,1.88226745 22.5843184,3.39151184 C23.5096049,4.19822474 24.3032305,5.11494609 24.9635848,6.13786951 C26.1884513,8.03522142 26.8562719,10.1020737 26.9807105,12.3285581 C27.0230196,13.0856474 26.9963751,13.8442874 26.8943842,14.599732 C26.8057156,15.2565402 26.6803498,15.9054537 26.4888607,16.5405515 C25.6541948,19.3093714 24.0496685,21.5806393 21.6719149,23.3282744 C19.3069467,25.0665112 16.6165349,25.9318232 13.6451358,25.9829036 C12.6901791,25.9993038 11.741908,25.9080922 10.8060808,25.7241652 C9.37166948,25.4422128 8.01733807,24.9502998 6.75167529,24.2403905 C6.62855425,24.1713592 6.56018621,24.17822 6.45048502,24.2564618 C5.71717554,24.7798125 4.88943911,25.1139262 4.01680717,25.3508602 C3.21800882,25.5677756 2.40291144,25.7023139 1.57688299,25.7772663 C1.26217528,25.8058374 0.947809157,25.838121 0.633101442,25.8665042 C0.443125146,25.8836093 0.252758454,25.8964851 0.0512166854,25.9121805 C0.0673693065,25.8866168 0.0744940276,25.8728951 0.0839123233,25.8608652 C0.122805493,25.8108656 0.16189386,25.76096 0.201860617,25.7117593 C1.3142443,24.3419404 2.22986856,22.8582127 2.97650029,21.2761306 C3.0121239,21.2007083 2.99963124,21.1483592 2.94941659,21.0881153 C2.83015071,20.9450715 2.71161683,20.8011348 2.59971966,20.6527338 C0.929118964,18.4374335 0.0736644368,15.9564871 0.00339321497,13.2235691 C-0.0158825716,12.4724948 0.0480447205,11.7252739 0.167700996,10.9820943 C0.302289905,10.1464343 0.517593121,9.33154473 0.821955351,8.53878847 C1.76427292,6.08429855 3.33049157,4.07571641 5.51812255,2.5286904 C7.76138491,0.942332024 10.2839754,0.109350552 13.0687653,0.021475377 C13.1859816,0.0178099954 13.3029051,0.00733076327 13.419975,-5.32907052e-15 Z M17.7843198,16.8998978 C17.8552742,16.8252744 17.9209583,16.7611772 17.9809328,16.6924278 C18.8154524,15.7359511 19.2907591,14.6408479 19.3799645,13.3887911 C19.4226641,12.7900651 19.3655687,12.203933 19.2112648,11.6264474 C18.8835276,10.3997664 18.1980904,9.39263229 17.170325,8.6041993 C16.1668617,7.83446915 15.0156825,7.43964176 13.7384542,7.38296932 C13.2343558,7.36064809 12.7347469,7.41069465 12.2425068,7.51966926 C10.8417671,7.82976995 9.7025925,8.53582583 8.8360605,9.63769594 C8.1588216,10.4988727 7.77486745,11.4721255 7.68327086,12.5529431 C7.63871695,13.0788314 7.66023752,13.6003494 7.7697435,14.1149126 C8.04516765,15.4084634 8.70620513,16.489516 9.75612551,17.3392737 C10.7507073,18.1442009 11.9076449,18.575917 13.2026361,18.6527021 C13.8331252,18.6900608 14.4559039,18.6198076 15.0687275,18.4676003 C15.126262,18.4533147 15.2064884,18.4639349 15.257191,18.493352 C15.7563607,18.783434 16.2737325,19.0369562 16.8159921,19.2438623 C17.6421182,19.5591322 18.5017207,19.7246852 19.3856741,19.7838012 C19.5198238,19.7927767 19.6539735,19.8021751 19.8169149,19.8133593 C19.0478842,18.878123 18.3765988,17.9200487 17.7843198,16.8998978 Z" id="Combined-Shape"></path>
            </g>
            <path d="M51.707943,8.28631693 C51.2969805,7.63796323 50.6986765,7.10367976 49.913013,6.68345051 C49.1273495,6.26322126 48.2752196,6.05310979 47.3565976,6.05310979 C46.3654529,6.05310979 45.4710186,6.22720215 44.673268,6.5753921 C43.8755173,6.92358205 43.1926047,7.40383685 42.6245095,8.0161709 C42.0564144,8.62850495 41.6212842,9.34888715 41.3191059,10.1773391 C41.0169276,11.0057911 40.8658408,11.9002656 40.8658408,12.8607896 C40.8658408,13.8213136 41.0169276,14.709785 41.3191059,15.5262304 C41.6212842,16.3426758 42.0503709,17.0570548 42.6063789,17.6693889 C43.1623869,18.2817229 43.8392561,18.7619777 44.6370068,19.1101677 C45.4347574,19.4583576 46.3291917,19.63245 47.3203364,19.63245 C48.4081782,19.63245 49.3267864,19.4283417 50.0761885,19.020119 C50.8255906,18.6118963 51.442025,18.083616 51.9255103,17.4352623 L53.774832,18.8040022 C53.0496042,19.6924869 52.1612134,20.4008627 51.109633,20.9291509 C50.0580526,21.4574391 48.7949664,21.7215792 47.3203364,21.7215792 C45.9424035,21.7215792 44.6974477,21.4994614 43.5854316,21.055219 C42.4734156,20.6109767 41.52459,19.9926486 40.7389265,19.2002163 C39.953263,18.407784 39.3428721,17.4712872 38.9077354,16.3906977 C38.4725986,15.3101082 38.2550336,14.1334839 38.2550336,12.8607896 C38.2550336,11.5880953 38.4725986,10.4114711 38.9077354,9.33088156 C39.3428721,8.25029206 39.953263,7.3137952 40.7389265,6.5213629 C41.52459,5.7289306 42.4734156,5.11060255 43.5854316,4.66636019 C44.6974477,4.22211784 45.9424035,4 47.3203364,4 C48.4565267,4 49.6108304,4.24613058 50.7832821,4.73839913 C51.9557338,5.23066769 52.9045593,5.95705307 53.6297872,6.91757707 L51.707943,8.28631693 Z M72.9690999,12.8607896 C72.9690999,14.1334839 72.7454914,15.3101082 72.2982675,16.3906977 C71.8510437,17.4712872 71.2285658,18.407784 70.4308151,19.2002163 C69.6330645,19.9926486 68.6781955,20.6109767 67.5661794,21.055219 C66.4541634,21.4994614 65.2333815,21.7215792 63.9037971,21.7215792 C62.5983869,21.7215792 61.389692,21.4994614 60.2776759,21.055219 C59.1656599,20.6109767 58.2107909,19.9926486 57.4130402,19.2002163 C56.6152896,18.407784 55.9928117,17.4712872 55.5455879,16.3906977 C55.098364,15.3101082 54.8747554,14.1334839 54.8747554,12.8607896 C54.8747554,11.5880953 55.098364,10.4114711 55.5455879,9.33088156 C55.9928117,8.25029206 56.6152896,7.3137952 57.4130402,6.5213629 C58.2107909,5.7289306 59.1656599,5.11060255 60.2776759,4.66636019 C61.389692,4.22211784 62.5983869,4 63.9037971,4 C65.2333815,4 66.4541634,4.22211784 67.5661794,4.66636019 C68.6781955,5.11060255 69.6330645,5.7289306 70.4308151,6.5213629 C71.2285658,7.3137952 71.8510437,8.25029206 72.2982675,9.33088156 C72.7454914,10.4114711 72.9690999,11.5880953 72.9690999,12.8607896 Z M70.3582927,12.8607896 C70.3582927,11.9242787 70.2072058,11.0418105 69.9050276,10.2133586 C69.6028493,9.38490662 69.1737626,8.66452442 68.6177546,8.05219037 C68.0617465,7.43985632 67.3848774,6.95359834 66.5871267,6.59340184 C65.7893761,6.23320534 64.8949418,6.05310979 63.9037971,6.05310979 C62.9126523,6.05310979 62.0242616,6.23320534 61.238598,6.59340184 C60.4529345,6.95359834 59.7821088,7.43985632 59.2261008,8.05219037 C58.6700928,8.66452442 58.2410061,9.38490662 57.9388278,10.2133586 C57.6366495,11.0418105 57.4855627,11.9242787 57.4855627,12.8607896 C57.4855627,13.7973005 57.6366495,14.6797687 57.9388278,15.5082207 C58.2410061,16.3366726 58.6700928,17.0570548 59.2261008,17.6693889 C59.7821088,18.2817229 60.4529345,18.7619777 61.238598,19.1101677 C62.0242616,19.4583576 62.9126523,19.63245 63.9037971,19.63245 C64.8949418,19.63245 65.7893761,19.4583576 66.5871267,19.1101677 C67.3848774,18.7619777 68.0617465,18.2817229 68.6177546,17.6693889 C69.1737626,17.0570548 69.6028493,16.3366726 69.9050276,15.5082207 C70.2072058,14.6797687 70.3582927,13.7973005 70.3582927,12.8607896 Z M78.9642869,4.43223364 C79.0126354,4.88848254 79.0488963,5.39275008 79.0730705,5.94505138 C79.0972448,6.49735268 79.1093317,6.95359474 79.1093317,7.31379124 L79.1818541,7.31379124 C79.6653394,6.32925414 80.4509911,5.53083054 81.5388329,4.91849648 C82.6266747,4.30616243 83.7749349,4 84.983648,4 C87.1351573,4 88.748765,4.63633761 89.8245197,5.90903191 C90.9002743,7.18172621 91.4381436,8.862618 91.4381436,10.9517577 L91.4381436,21.2893456 L88.9723812,21.2893456 L88.9723812,11.9603029 C88.9723812,11.0718182 88.8998595,10.2673914 88.754814,9.54699838 C88.6097684,8.82660538 88.3619859,8.20827732 88.0114591,7.69199567 C87.6609323,7.17571402 87.1895413,6.77350063 86.5972719,6.48534343 C86.0050025,6.19718623 85.2616551,6.05310979 84.3672074,6.05310979 C83.7145023,6.05310979 83.0799375,6.18517986 82.4634938,6.44932396 C81.8470501,6.71346806 81.2970939,7.11568145 80.8136087,7.6559762 C80.3301234,8.19627095 79.943341,8.88063404 79.6532499,9.70908599 C79.3631588,10.5375379 79.2181154,11.5160571 79.2181154,12.6446728 L79.2181154,21.2893456 L76.752353,21.2893456 L76.752353,8.14223905 C76.752353,7.68599015 76.740266,7.09767802 76.7160918,6.37728502 C76.6919175,5.65689202 76.6556567,5.00854804 76.6073081,4.43223364 L78.9642869,4.43223364 Z M103.271386,21.2893456 L100.551795,21.2893456 L93.6259034,4.43223364 L96.3817554,4.43223364 L101.89346,18.6959438 L101.965982,18.6959438 L107.513947,4.43223364 L110.161016,4.43223364 L103.271386,21.2893456 Z M129.355284,12.8607896 C129.355284,14.1334839 129.131675,15.3101082 128.684451,16.3906977 C128.237227,17.4712872 127.614749,18.407784 126.816999,19.2002163 C126.019248,19.9926486 125.064379,20.6109767 123.952363,21.055219 C122.840347,21.4994614 121.619565,21.7215792 120.289981,21.7215792 C118.984571,21.7215792 117.775876,21.4994614 116.66386,21.055219 C115.551844,20.6109767 114.596975,19.9926486 113.799224,19.2002163 C113.001473,18.407784 112.378995,17.4712872 111.931772,16.3906977 C111.484548,15.3101082 111.260939,14.1334839 111.260939,12.8607896 C111.260939,11.5880953 111.484548,10.4114711 111.931772,9.33088156 C112.378995,8.25029206 113.001473,7.3137952 113.799224,6.5213629 C114.596975,5.7289306 115.551844,5.11060255 116.66386,4.66636019 C117.775876,4.22211784 118.984571,4 120.289981,4 C121.619565,4 122.840347,4.22211784 123.952363,4.66636019 C125.064379,5.11060255 126.019248,5.7289306 126.816999,6.5213629 C127.614749,7.3137952 128.237227,8.25029206 128.684451,9.33088156 C129.131675,10.4114711 129.355284,11.5880953 129.355284,12.8607896 Z M126.744476,12.8607896 C126.744476,11.9242787 126.59339,11.0418105 126.291211,10.2133586 C125.989033,9.38490662 125.559946,8.66452442 125.003938,8.05219037 C124.44793,7.43985632 123.771061,6.95359834 122.97331,6.59340184 C122.17556,6.23320534 121.281126,6.05310979 120.289981,6.05310979 C119.298836,6.05310979 118.410445,6.23320534 117.624782,6.59340184 C116.839118,6.95359834 116.168293,7.43985632 115.612285,8.05219037 C115.056277,8.66452442 114.62719,9.38490662 114.325012,10.2133586 C114.022833,11.0418105 113.871746,11.9242787 113.871746,12.8607896 C113.871746,13.7973005 114.022833,14.6797687 114.325012,15.5082207 C114.62719,16.3366726 115.056277,17.0570548 115.612285,17.6693889 C116.168293,18.2817229 116.839118,18.7619777 117.624782,19.1101677 C118.410445,19.4583576 119.298836,19.63245 120.289981,19.63245 C121.281126,19.63245 122.17556,19.4583576 122.97331,19.1101677 C123.771061,18.7619777 124.44793,18.2817229 125.003938,17.6693889 C125.559946,17.0570548 125.989033,16.3366726 126.291211,15.5082207 C126.59339,14.6797687 126.744476,13.7973005 126.744476,12.8607896 Z M150,12.8607896 C150,14.1334839 149.776391,15.3101082 149.329168,16.3906977 C148.881944,17.4712872 148.259466,18.407784 147.461715,19.2002163 C146.663965,19.9926486 145.709096,20.6109767 144.59708,21.055219 C143.485063,21.4994614 142.264282,21.7215792 140.934697,21.7215792 C139.629287,21.7215792 138.420592,21.4994614 137.308576,21.055219 C136.19656,20.6109767 135.241691,19.9926486 134.44394,19.2002163 C133.64619,18.407784 133.023712,17.4712872 132.576488,16.3906977 C132.129264,15.3101082 131.905656,14.1334839 131.905656,12.8607896 C131.905656,11.5880953 132.129264,10.4114711 132.576488,9.33088156 C133.023712,8.25029206 133.64619,7.3137952 134.44394,6.5213629 C135.241691,5.7289306 136.19656,5.11060255 137.308576,4.66636019 C138.420592,4.22211784 139.629287,4 140.934697,4 C142.264282,4 143.485063,4.22211784 144.59708,4.66636019 C145.709096,5.11060255 146.663965,5.7289306 147.461715,6.5213629 C148.259466,7.3137952 148.881944,8.25029206 149.329168,9.33088156 C149.776391,10.4114711 150,11.5880953 150,12.8607896 Z M147.389193,12.8607896 C147.389193,11.9242787 147.238106,11.0418105 146.935928,10.2133586 C146.633749,9.38490662 146.204663,8.66452442 145.648655,8.05219037 C145.092647,7.43985632 144.415777,6.95359834 143.618027,6.59340184 C142.820276,6.23320534 141.925842,6.05310979 140.934697,6.05310979 C139.943552,6.05310979 139.055162,6.23320534 138.269498,6.59340184 C137.483835,6.95359834 136.813009,7.43985632 136.257001,8.05219037 C135.700993,8.66452442 135.271906,9.38490662 134.969728,10.2133586 C134.66755,11.0418105 134.516463,11.9242787 134.516463,12.8607896 C134.516463,13.7973005 134.66755,14.6797687 134.969728,15.5082207 C135.271906,16.3366726 135.700993,17.0570548 136.257001,17.6693889 C136.813009,18.2817229 137.483835,18.7619777 138.269498,19.1101677 C139.055162,19.4583576 139.943552,19.63245 140.934697,19.63245 C141.925842,19.63245 142.820276,19.4583576 143.618027,19.1101677 C144.415777,18.7619777 145.092647,18.2817229 145.648655,17.6693889 C146.204663,17.0570548 146.633749,16.3366726 146.935928,15.5082207 C147.238106,14.6797687 147.389193,13.7973005 147.389193,12.8607896 Z" id="convoo" fill="#000000"></path>
        </g>
    </g>
</svg>