
<svg width="90px" height="18px" viewBox="60 11 90 18" version="1.1" xmlns="http://www.w3.org/2000/svg" xmlns:xlink="http://www.w3.org/1999/xlink">
    <!-- Generator: Sketch 42 (36781) - http://www.bohemiancoding.com/sketch -->
    <desc>Created with Sketch.</desc>
    <defs></defs>
    <g id="convoo" stroke="none" stroke-width="1" fill="none" fill-rule="evenodd" transform="translate(60.000000, 12.000000)" stroke-dasharray="400">
        <path d="M68.28,0.28 C69.8120311,0.218043395 71.335143,0.541231925 72.71,1.22 C74.0157854,1.91508819 75.1080618,2.95205942 75.87,4.22 C76.585565,5.54072586 76.9634465,7.01789909 76.97,8.52 C77.050189,9.94205559 77.8805082,11.2141959 79.15,11.86 C79.9861709,12.2732285 80.9361036,12.3963679 81.85,12.21 C82.3074237,12.156484 82.7709981,12.2007962 83.21,12.34 L83.96,12.54 C84.1531739,12.6361835 84.3644058,12.690695 84.58,12.7 C84.544769,12.3950842 84.4603406,12.0978961 84.33,11.82 C84.2288159,11.4962976 84.2116101,11.1521811 84.28,10.82 C84.4012391,10.5050165 84.5484109,10.2006385 84.72,9.91 C84.8618541,9.59146472 84.9594269,9.2550068 85.01,8.91 C85.2169329,7.56507641 84.7363467,6.20591865 83.73,5.29 C82.7823542,4.40167164 81.4623726,4.0287955 80.19,4.29 C79.6211176,4.40366032 79.0847572,4.64280189 78.62,4.99 C78.3928276,5.1639273 78.1849714,5.3617259 78,5.58 C77.8542557,5.81509436 77.6868613,6.03605494 77.5,6.24 C77.3896078,5.99889504 77.3154727,5.74279217 77.28,5.48 C77.2,5.22 77.1066667,4.96666667 77,4.72 C76.7719118,4.19264971 76.490445,3.69003048 76.16,3.22 C75.9457304,2.99549081 75.7578427,2.74721063 75.6,2.48 C75.54,2.3 75.53,2.36 75.71,2.19 C76.1213341,1.80302548 76.577987,1.46725124 77.07,1.19 C80.0179339,-0.546629571 83.7439342,-0.216329061 86.3404024,2.01179775 C88.9368707,4.23992457 89.828981,7.87259794 88.56,11.05 C87.3687982,14.1301069 84.4230878,16.1752954 81.1208991,16.2149217 C77.8187103,16.2545479 74.8247707,14.2806353 73.56,11.23 C73.1763545,10.1575924 72.9735926,9.02888417 72.96,7.89 C72.8826248,6.8143454 72.3741907,5.81550664 71.55,5.12 C70.6417603,4.36487214 69.454783,4.03253204 68.2864768,4.20625076 C67.1181707,4.37996949 66.0792404,5.04328605 65.43,6.03 C64.8281441,6.99478755 64.6748909,8.17337799 65.01,9.26 C65.16,9.79 65.53,10.26 65.65,10.76 C65.7214917,11.0625 65.7214917,11.3775 65.65,11.68 C65.5121437,11.9733564 65.4242674,12.2876833 65.39,12.61 C65.7353407,12.5787856 66.0731893,12.4909449 66.39,12.35 C66.7627075,12.233994 67.1438502,12.1470667 67.53,12.09 C67.8924015,12.0879922 68.2541284,12.1214854 68.61,12.19 C68.9946767,12.2243286 69.3823271,12.2007325 69.76,12.12 C70.6666842,11.9479606 71.4842094,11.463108 72.07,10.75 C72.1413405,10.6073088 72.2285593,10.4731261 72.33,10.35 C72.45,10.27 72.33,10.23 72.46,10.35 C72.5247676,10.5103455 72.5684654,10.678414 72.59,10.85 C72.6433333,11.0433333 72.7033333,11.2333333 72.77,11.42 C72.903176,11.7848769 73.0636293,12.1392113 73.25,12.48 C73.4219625,12.794265 73.6122923,13.0981248 73.82,13.39 C74.0453211,13.602495 74.2314931,13.8529809 74.37,14.13 C74.1863831,14.3778105 73.9509066,14.5825727 73.68,14.73 C73.3780939,14.9554519 73.0606369,15.1592927 72.73,15.34 C69.0682265,17.4361577 64.4095478,16.3535332 62.0473434,12.8574707 C59.685139,9.3614082 60.4189412,4.63521546 63.73,2.02 C65.0373898,1.00492315 66.6107568,0.39016388 68.26,0.25 C68.61,0.28 68.13,0.3 68.28,0.28 Z" id="path" stroke-opacity="0.7" stroke="#000000" stroke-width="0.300000012" fill="#FFFFFF"></path>
        <path d="M23.86,0.15 C23.9731768,0.158425015 24.0868232,0.158425015 24.2,0.15 C27.7750893,0.450874197 30.7195495,3.08131305 31.42,6.6 C31.5536301,7.25771626 31.6006956,7.93008094 31.56,8.6 C31.3599488,12.3488978 28.5981008,15.463234 24.9,16.11 C24.6387319,16.1580032 24.3749885,16.1913885 24.11,16.21 L22.93,16.21 C22.73,16.21 22.52,16.21 22.32,16.14 C18.2392739,15.524284 15.2851391,11.9223126 15.48,7.8 C15.4980376,7.3525796 15.5549181,6.90757263 15.65,6.47 C16.4033188,3.0213078 19.313113,0.464093161 22.83,0.16 C22.939877,0.167356394 23.050123,0.167356394 23.16,0.16 L23.85,0.16 L23.86,0.15 Z M19.5,8.15 C19.5,10.359139 21.290861,12.15 23.5,12.15 C25.709139,12.15 27.5,10.359139 27.5,8.15 C27.5,5.940861 25.709139,4.15 23.5,4.15 C22.4304139,4.14991644 21.4053469,4.57820045 20.6537474,5.33919495 C19.9021479,6.10018946 19.4866302,7.13049745 19.5,8.2 L19.5,8.15 Z" id="path" stroke-opacity="0.9" stroke="#F92349" stroke-width="0.300000012" fill="#FFFFFF"></path>
        <path d="M8.7,16.24 L7.62,16.24 C7.28388409,16.2160026 6.94978356,16.1692285 6.62,16.1 C3.19653869,15.4007524 0.615076184,12.5728592 0.23,9.1 C0.228748451,8.98164592 0.211937656,8.86397035 0.18,8.75 L0.18,7.65 C0.188418119,7.59699885 0.188418119,7.54300115 0.18,7.49 C0.225663659,6.94381954 0.329587517,6.40408596 0.49,5.88 C1.44406814,2.73291538 4.21438107,0.481046733 7.49,0.19 C7.59649545,0.198547031 7.70350455,0.198547031 7.81,0.19 L8.61,0.19 C9.17111281,0.216329249 9.72770805,0.303506817 10.27,0.45 C11.540596,0.787767411 12.7083643,1.4334746 13.67,2.33 C14.2681839,2.86778592 14.7748124,3.49938279 15.17,4.2 C15.3590558,4.54462477 15.4359576,4.93962041 15.39,5.33 C15.3213824,6.16628424 14.738041,6.8708194 13.929239,7.09424534 C13.1204371,7.31767129 12.2581649,7.01247694 11.77,6.33 C11.69,6.23 11.63,6.11 11.56,6.01 C10.7262745,4.71793524 9.22569176,4.01818165 7.7,4.21 C6.83485386,4.3092939 6.02826261,4.69673948 5.41,5.31 C4.52170738,6.14940891 4.07449203,7.35430314 4.2,8.57 C4.36286914,10.311889 5.63883515,11.7458318 7.35,12.11 C9.01255038,12.4710039 10.7215379,11.7408731 11.61,10.29 L11.75,10.07 C12.0782159,9.59290788 12.5971081,9.28149644 13.1725122,9.21628398 C13.7479163,9.15107151 14.3233392,9.33846058 14.75,9.73 C15.1969407,10.112272 15.4529729,10.6718852 15.45,11.26 C15.4572043,11.554615 15.3919611,11.8464926 15.26,12.11 C15.0972639,12.421067 14.9100049,12.7186751 14.7,13 C13.9985156,13.9488241 13.0928993,14.7279958 12.05,15.28 C11.1198022,15.7782185 10.1002291,16.087489 9.05,16.19 C8.93201037,16.1955156 8.8148144,16.2122578 8.7,16.24 L8.7,16.24 Z" id="path" stroke-opacity="0.9" stroke="#F92349" stroke-width="0.300000012" fill="#FFFFFF"></path>
        <path d="M31.89,8.22 L31.89,0.9 L31.89,0.78 C31.89,0.74 31.89,0.7 31.97,0.7 L36.65,0.7 C36.6831371,0.7 36.71,0.726862915 36.71,0.76 L36.71,0.87 L36.71,2.64 L36.71,2.75 C36.71,2.77 36.77,2.75 36.78,2.67 C37.3119302,1.79140452 38.1159252,1.11029081 39.07,0.73 C39.5918269,0.504704089 40.1447618,0.359727261 40.71,0.3 C41.0428084,0.273545307 41.3771916,0.273545307 41.71,0.3 C42.0809317,0.318115722 42.4492779,0.371693358 42.81,0.46 C44.1241777,0.774119806 45.2477402,1.62222829 45.91,2.8 C46.2346695,3.38223793 46.4610434,4.01405745 46.58,4.67 C46.6984375,5.24921211 46.7587367,5.83880416 46.76,6.43 L46.76,15.56 C46.76,15.76 46.76,15.76 46.56,15.76 L41.94,15.76 C41.75,15.76 41.75,15.76 41.75,15.57 L41.75,7.57 C41.7537292,7.13373759 41.7135265,6.69820804 41.63,6.27 C41.5748854,5.98507354 41.4806608,5.70913019 41.35,5.45 C41.0873449,4.8929198 40.5525952,4.5136647 39.94,4.45 C39.5171689,4.38790175 39.0856741,4.42557193 38.68,4.56 C38.1209845,4.7561261 37.6566697,5.15615111 37.38,5.68 C37.1515037,6.09829692 37.0055232,6.55660794 36.95,7.03 C36.9336553,7.27639591 36.9336553,7.52360409 36.95,7.77 L36.95,15.59 L36.95,15.72 C36.9529205,15.7402265 36.9468562,15.7607192 36.9333989,15.776099 C36.9199415,15.7914788 36.9004352,15.8002098 36.88,15.8 L32.07,15.8 C31.89,15.8 31.89,15.8 31.89,15.63 L31.89,8.22 Z" id="path" stroke-opacity="0.9" stroke="#F92349" stroke-width="0.300000012" fill="#FFFFFF"></path>
        <path d="M48.24,0.69 L50.77,0.69 C51.01,0.69 50.97,0.69 51.04,0.89 L53.32,7.89 L54.07,10.28 C54.0669391,10.3166028 54.0669391,10.3533972 54.07,10.39 C54.0733417,10.3567504 54.0733417,10.3232496 54.07,10.29 L55.12,7.06 L56.77,2.57 L57.35,0.8 C57.35,0.69 57.35,0.68 57.51,0.68 L62.64,0.68 L62.64,0.75 L61.93,2.64 C61.9052182,2.70436713 61.871559,2.76495354 61.83,2.82 C61.2779015,3.52617467 60.8423929,4.31616712 60.54,5.16 C60.3121577,5.8085365 60.151319,6.47869791 60.06,7.16 C60.0322247,7.36595548 59.9784631,7.56756126 59.9,7.76 L57.5,13.85 L56.83,15.57 L56.83,15.63 C56.8153497,15.6883431 56.7597661,15.7268241 56.7,15.72 L51.58,15.72 C51.38,15.72 51.41,15.72 51.34,15.56 L49.41,10.66 L45.66,1.13 L45.52,0.78 C45.52,0.71 45.52,0.7 45.58,0.69 L48.25,0.69 L48.24,0.69 Z" id="path" stroke-opacity="0.9" stroke="#F92349" stroke-width="0.300000012" fill="#FFFFFF"></path>
    </g>
</svg>